<svg xmlns="http://www.w3.org/2000/svg" viewBox="0 0 50 40">
  <title>dolittle_symbol</title>
  <g>
    <path d="M27,15.15H22.45a.78.78,0,0,0-.68.4l-2.29,4a.8.8,0,0,0,0,.79l2.29,4a.79.79,0,0,0,.68.39H27a.77.77,0,0,0,.68-.39l2.29-4a.8.8,0,0,0,0-.79l-2.3-4A.76.76,0,0,0,27,15.15Z" fill="#525a63"/>
    <path d="M34.22,4.65a.39.39,0,0,0-.53-.15.4.4,0,0,0-.14.15l-3.7,6.4a.65.65,0,0,0,0,.66l4.6,8a.46.46,0,0,1,0,.48l-4.65,8a.47.47,0,0,1-.42.24H20.2a.66.66,0,0,0-.57.33l-3.7,6.41a.39.39,0,0,0,.14.53.35.35,0,0,0,.2.05h16.6a1.74,1.74,0,0,0,1.52-.88l8.13-14.08a1.73,1.73,0,0,0,0-1.76Z" fill="#525a63"/>
  </g>
</svg>
